<svg xmlns="http://www.w3.org/2000/svg" version="1.1" xmlns:xlink="http://www.w3.org/1999/xlink" xmlns:svgjs="http://svgjs.dev/svgjs" viewBox="0 0 600 600"><path d="M303.1468505859375 148.9510498046875C313.28671010335285 168.88111877441406 190.38461303710938 445.80419921875 228.67132568359375 481.4685363769531C266.9580383300781 517.1328735351562 543.0069859822592 382.8671417236328 532.8671264648438 362.93707275390625C522.7272669474283 343.0070037841797 206.11888122558594 397.5524597167969 167.83216857910156 361.88812255859375C129.5454559326172 326.2237854003906 293.00699106852215 129.02098083496094 303.1468505859375 148.9510498046875C313.28671010335285 168.88111877441406 190.38461303710938 445.80419921875 228.67132568359375 481.4685363769531 " fill="url(&quot;#SvgjsLinearGradient1000&quot;)" stroke-width="5" stroke="hsl(0, 0%, 80%)" stroke-opacity="0.05"></path><defs><linearGradient id="SvgjsLinearGradient1000" gradientTransform="rotate(0, 0.5, 0.5)"><stop stop-color="hsl(162, 100%, 58%)" offset="0"></stop><stop stop-color="hsl(270, 73%, 53%)" offset="1"></stop></linearGradient><radialGradient id="SvgjsRadialGradient1001"><stop stop-color="hsl(162, 100%, 58%)" offset="0"></stop><stop stop-color="hsl(270, 73%, 53%)" offset="1"></stop></radialGradient><linearGradient id="SvgjsLinearGradient1002"><stop stop-color="hsl(162, 100%, 58%)" offset="0"></stop><stop stop-color="hsl(270, 73%, 53%)" offset="1"></stop></linearGradient></defs><path d="M239.16081990061662 86.01403328421975C249.30067941803196 105.94410225394631 126.39858235178849 382.86718269828225 164.68529499827287 418.5315198564854C202.97200764475724 454.19585701468856 479.02095529693827 319.93012520316506 468.88109577952287 300.0000562334385C458.74123626210746 280.06998726371194 142.13285054026505 334.6154431963291 103.84613789378068 298.951106038126C65.5594252472963 263.2867688799229 229.02096038320127 66.08396431449319 239.16081990061662 86.01403328421975C249.30067941803196 105.94410225394631 126.39858235178849 382.86718269828225 164.68529499827287 418.5315198564854 " fill-opacity="1" fill="none" opacity="1" stroke-opacity="0.49" stroke-width="5" stroke="hsl(230, 55%, 40%)" transform="matrix(1,0,0,1,75,75)"></path></svg>